<?xml version="1.0" encoding="UTF-8"?>
<svg id="logo1_复制" xmlns="http://www.w3.org/2000/svg" viewBox="0 0 128 128">
  <defs>
    <style>
      .cls-1 {
        fill: #00befc;
      }
    </style>
  </defs>
  <g>
    <path class="cls-1" d="m32.02,50.12c0-2.76-2.24-5-5.01-5s-5.01,2.24-5.01,5v-16c0,2.76,2.24,5,5.01,5s5.01-2.24,5.01-5v16Z"/>
    <g>
      <circle class="cls-1" cx="13.98" cy="34.12" r="8"/>
      <circle class="cls-1" cx="13.98" cy="50.12" r="8"/>
      <circle class="cls-1" cx="13.98" cy="66.12" r="8"/>
      <rect class="cls-1" x="5.98" y="34.12" width="16.03" height="32"/>
    </g>
    <g>
      <circle class="cls-1" cx="40.05" cy="26.12" r="8"/>
      <circle class="cls-1" cx="40.05" cy="42.12" r="8"/>
      <circle class="cls-1" cx="40.05" cy="58.12" r="8"/>
      <circle class="cls-1" cx="40.05" cy="74.12" r="8"/>
      <circle class="cls-1" cx="40.05" cy="90.12" r="8"/>
      <rect class="cls-1" x="32.02" y="26.05" width="16.03" height="64.07"/>
    </g>
  </g>
  <g>
    <path class="cls-1" d="m95.05,66.12c0-2.76,2.25-5,5.02-5s5.02,2.24,5.02,5v-16c0,2.76-2.25,5-5.02,5s-5.02-2.24-5.02-5v16Z"/>
    <g>
      <circle class="cls-1" cx="113.09" cy="34.12" r="8"/>
      <circle class="cls-1" cx="113.09" cy="50.12" r="8"/>
      <circle class="cls-1" cx="113.09" cy="66.12" r="8"/>
      <rect class="cls-1" x="105.06" y="34.12" width="16.03" height="32" transform="translate(226.15 100.23) rotate(-180)"/>
    </g>
    <g>
      <circle class="cls-1" cx="87.02" cy="26.12" r="8"/>
      <circle class="cls-1" cx="87.02" cy="42.12" r="8"/>
      <circle class="cls-1" cx="87.02" cy="58.12" r="8"/>
      <circle class="cls-1" cx="87.02" cy="74.12" r="8"/>
      <circle class="cls-1" cx="87.02" cy="90.12" r="8"/>
      <rect class="cls-1" x="79.02" y="26.05" width="16.03" height="64.07" transform="translate(174.07 116.17) rotate(-180)"/>
    </g>
  </g>
  <g>
    <circle class="cls-1" cx="63.52" cy="58.11" r="8"/>
    <circle class="cls-1" cx="63.52" cy="74.11" r="8"/>
    <circle class="cls-1" cx="63.52" cy="90.11" r="8"/>
    <circle class="cls-1" cx="63.52" cy="106.11" r="8"/>
    <rect class="cls-1" x="55.52" y="59.1" width="16.03" height="47.01" transform="translate(127.07 165.21) rotate(-180)"/>
  </g>
</svg>